# xmcd
#
# Track frame offsets:
#	150
#	9087
#	19212
#	30687
#	51462
#	63495
#	74562
#	83037
#	89862
#	101487
#	109887
#	126462
#
# Disc length: 1838 seconds
#
# Revision: 1
# Processed by: cddbd v1.5PL3 Copyright (c) Steve Scherf et al.
# Submitted via: audiograbber 1.83.01
#
DISCID=a9072c0c
DTITLE=Fats Domino - Fats Domino
DYEAR=1996
DGENRE=Blues
TTITLE0=My Girl Josephine
TTITLE1=I'm Gonna Be a Wheel Some Day
TTITLE2=Blue Monday
TTITLE3=Jambalaya
TTITLE4=Blueberry Hill
TTITLE5=Going To The River
TTITLE6=I'm Ready
TTITLE7=Whole Lotta Loving
TTITLE8=I Want To Walk You Home
TTITLE9=When The Saints Go Marching in
TTITLE10=Shake Rattle And Roll
TTITLE11=Ain't That Shame
EXTD=Original Legends Version. 1996 under License of START AUDIO and VIDEO Ltd. C
EXTD=opyr. 1996 Mandarim Records Ltd.\nMR-03979
EXTT0=
EXTT1=
EXTT2=
EXTT3=
EXTT4=
EXTT5=
EXTT6=
EXTT7=
EXTT8=
EXTT9=
EXTT10=
EXTT11=
PLAYORDER=
